<svg xmlns="http://www.w3.org/2000/svg" width="44" height="18" fill="none" viewBox="0 0 44 18"><path fill="#19B89D" fill-rule="evenodd" d="M43.291 7.922c-4.264-2.61-9.52-3.868-13.964-3.753L25.612.384a1.27 1.27 0 0 0-1.82 0 1.328 1.328 0 0 0 0 1.854l2.985 3.04a10.909 10.909 0 0 1-5.247 1.404l-1.664 3.256a333.406 333.406 0 0 0-1.463 2.88c-.178.357-.354.715-.632 1.282l-.543 1.104h9.67c-.466-3.726 2.392-6.99 6.038-6.99 3.595 0 6.45 3.184 6.053 6.883 2.8-.537 4.926-3.045 4.926-6.051 0-.46-.237-.887-.624-1.124Zm-27.033 3.406c-1.07-1.89-3.06-3.114-5.279-3.114-3.595 0-6.45 3.184-6.052 6.885-1.832-.347-3.414-1.537-4.278-3.277a1.331 1.331 0 0 1 .117-1.375l.955-1.303L.396 7.849c-.751-.735-.376-2.024.64-2.231l2.854-.581c2.638-.537 3.978-.81 4.047-.822.314-.146 1.07-.591 1.07-1.506 0-.734.592-1.327 1.316-1.31.712.016 1.268.662 1.256 1.388a4.11 4.11 0 0 1-.348 1.611 22.69 22.69 0 0 1 4.7 1.146l-.7-2.473a1.314 1.314 0 0 1 .882-1.622c.683-.2 1.395.202 1.592.898l.749 2.652a3.46 3.46 0 0 1-.247 2.51l-1.949 3.82ZM10.979 18c1.942 0 3.517-1.604 3.517-3.582 0-1.979-1.575-3.583-3.517-3.583s-3.516 1.604-3.516 3.583c0 1.978 1.574 3.582 3.516 3.582Zm21.957 0c1.942 0 3.517-1.604 3.517-3.582 0-1.979-1.575-3.583-3.517-3.583s-3.516 1.604-3.516 3.583c0 1.978 1.574 3.582 3.516 3.582Z" clip-rule="evenodd"/></svg>