<svg xmlns="http://www.w3.org/2000/svg" width="44" height="20" fill="none" viewBox="0 0 44 20"><path fill="#FFD473" fill-rule="evenodd" d="M17.484 5.741 15.726.001h-1.083c-1.82 0-3.563.76-4.78 2.086L6.504 5.74h10.979Zm11.079-1.778.726 1.779H20.17L18.413 0h4.178c2.645 0 4.99 1.556 5.972 3.963ZM32.936 20c1.942 0 3.517-1.542 3.517-3.445 0-1.903-1.575-3.445-3.517-3.445s-3.516 1.542-3.516 3.445c0 1.903 1.574 3.445 3.516 3.445Zm-4.18-11.738H20.5v1.393c0 .679-.533 1.263-1.225 1.295-.739.034-1.348-.543-1.348-1.26V8.263H2.306c-1.24 0-2.305.97-2.305 2.243L0 10.757h1.422c.693 0 1.29.521 1.322 1.2.035.723-.554 1.32-1.285 1.32H.317c.694 2.02 2.47 3.534 4.61 3.931-.398-3.557 2.457-6.62 6.052-6.62 3.642 0 6.505 3.135 6.04 6.723h9.878c-.465-3.583 2.393-6.722 6.04-6.722 3.594 0 6.449 3.062 6.052 6.619 2.8-.516 4.926-2.928 4.926-5.82 0-.931-.72-1.72-1.676-1.813L28.756 8.262ZM10.979 20c1.942 0 3.517-1.542 3.517-3.445 0-1.903-1.575-3.445-3.517-3.445s-3.516 1.542-3.516 3.445c0 1.903 1.574 3.445 3.516 3.445Z" clip-rule="evenodd"/></svg>