<svg xmlns="http://www.w3.org/2000/svg" width="44" height="24" fill="none" viewBox="0 0 44 24"><path fill="#26B5C0" fill-rule="evenodd" d="M25.475 5.694c3.299-.001 3.47-.001 3.64.01l.03.002.106.007-.631-1.579A6.415 6.415 0 0 0 22.635.08h-4.108l1.683 5.615h5.265Zm-17.593 0L9.004.08H3.44a1.29 1.29 0 0 0-1.23.905L.884 5.224l-.148.47h7.145ZM15.836.08l1.683 5.615H10.51L11.633.08h4.203ZM7.65 12.583V8.275H.004c-.005.321-.005 1.103-.004 3.106v.397h1.462a1.29 1.29 0 0 1 0 2.58H.002v1.635a3.874 3.874 0 0 0 3.641 3.864 7.4 7.4 0 0 1 4.007-7.274Zm33.603.423a1.29 1.29 0 0 0 1.287 1.352h1.446c-.164 2.225-1.57 4.193-3.6 5.05.13-4.212-3.256-7.63-7.385-7.63-4.316 0-7.761 3.718-7.357 8.086h-7.285c.43-4.655-3.503-8.531-8.131-8.046V8.275h7.734v1.462a1.29 1.29 0 0 0 1.352 1.29c.693-.033 1.226-.631 1.226-1.326V8.275h8.301l13.056.716a1.29 1.29 0 0 1 1.164.917l.196.648v.004c.164.54.281.93.367 1.218h-1.047c-.694 0-1.291.534-1.324 1.228ZM32.299 23.94a4.816 4.816 0 0 0 5.112-2.84c1.39-3.176-.952-6.743-4.41-6.743-2.915 0-5.18 2.59-4.762 5.506a4.826 4.826 0 0 0 4.06 4.077ZM6.24 19.864A4.82 4.82 0 0 1 11 14.358c2.918 0 5.18 2.593 4.763 5.506a4.828 4.828 0 0 1-2.962 3.778 4.797 4.797 0 0 1-5.3-1.165c-1.017-1.08-1.198-2.227-1.247-2.534-.008-.051-.012-.08-.016-.08Z" clip-rule="evenodd"/></svg>